<?xml version="1.0" encoding="utf-8"?>
<!-- Generator: Adobe Illustrator 19.2.1, SVG Export Plug-In . SVG Version: 6.00 Build 0)  -->
<svg version="1.1" id="Layer_1" xmlns="http://www.w3.org/2000/svg" xmlns:xlink="http://www.w3.org/1999/xlink" x="0px" y="0px"
	 viewBox="0 0 184 171" style="enable-background:new 0 0 184 171;" xml:space="preserve">
<style type="text/css">
	.st0{fill:#FFFFFF;}
	.st1{fill:#8CC63F;}
	.st2{fill:#E4F923;}
	.st3{fill:#009245;}
	.st4{fill:#4D4D4D;}
	.st5{fill:#666666;}
</style>
<circle class="st0" cx="90.9" cy="86.1" r="84.9"/>
<circle class="st1" cx="104.2" cy="26.6" r="20.2"/>
<ellipse class="st2" cx="64.8" cy="44.5" rx="13.2" ry="13.3"/>
<g>
	<path class="st3" d="M139.2,44.7c-16.4,0-29.8,13.3-29.8,29.8c0,16.4,13.3,29.8,29.8,29.8c16.4,0,29.8-13.3,29.8-29.8
		C169,58.1,155.7,44.7,139.2,44.7z M152.3,85.3c-0.9,1.3-2.3,2.3-4,3c-0.6,0.2-2.2,0.5-2.2,0.6v5.5h-5v-5h-3v5h-5v-5h-7v-4h0.3
		c0.8,0,1.3-0.2,1.6-0.3c0.3-0.1,0.6-0.4,0.8-0.6c0.1-0.2,0.3-0.8,0.3-1.7V66.3c0-0.9-0.2-1.4-0.3-1.7c-0.1-0.2-0.4-0.6-0.7-0.8
		c-0.3-0.1-0.9-0.4-1.7-0.4H126v-3h7v-6h5v6h3v-6h5V60c0,0.1,1.5,0.3,2,0.6c1.5,0.6,2.6,1.5,3.4,2.6c0.8,1.1,1.2,2.4,1.2,3.7
		c0,1-0.2,1.9-0.6,2.8c-0.4,0.9-1,1.6-1.8,2.3c-0.8,0.7-1.8,1.2-3.1,1.7c1.4,0.3,2.5,0.7,3.2,1.2c1.1,0.6,1.9,1.4,2.5,2.5
		s0.9,2.3,0.9,3.6C153.7,82.5,153.2,84,152.3,85.3z"/>
	<path class="st3" d="M143.6,76.7c-0.8-0.3-2.1-0.3-3.7-0.3H136v6c0,0.9,0,1.4,0.1,1.6c0.1,0.2,0.2,0.3,0.4,0.3c0.2,0.1,0.6,0,1.3,0
		h2.2c1.3,0,2.3,0,3.1-0.3c0.8-0.2,1.5-0.7,2.1-1.4c0.6-0.7,0.9-1.6,0.9-2.6c0-0.9-0.2-1.5-0.6-2.1C145,77.4,144.4,77.1,143.6,76.7z
		"/>
	<path class="st3" d="M139.2,71.5c1.7,0,3,0,3.8-0.3s1.4-0.6,1.8-1.2s0.6-1.2,0.6-2s-0.2-1.4-0.6-2s-1-1-1.7-1.2
		c-0.7-0.2-2.1-0.4-4-0.4H136v7h3.2V71.5z"/>
</g>
<g>
	<path class="st4" d="M24,105.5V65.9h13c4.7,0,8.3,0.9,10.9,2.7c2.6,1.8,3.9,4.5,3.9,8.1c0,1.8-0.5,3.4-1.4,4.9
		c-0.9,1.4-2.3,2.5-4.1,3.2c2.5,0.5,4.3,1.5,5.6,3.2s1.9,3.7,1.9,5.9c0,3.8-1.3,6.7-3.8,8.6c-2.5,2-6.1,2.9-10.6,2.9H24V105.5z
		 M31.9,82.5h5.3c2.1,0,3.8-0.4,4.9-1.3c1.1-0.9,1.7-2.1,1.7-3.8c0-1.8-0.6-3.2-1.7-4.1c-1.2-0.9-2.9-1.3-5.2-1.3h-5
		C31.9,72,31.9,82.5,31.9,82.5z M31.9,88v11.4h7.4c2.1,0,3.7-0.5,4.8-1.4s1.7-2.3,1.7-4.1c0-1.9-0.5-3.4-1.6-4.4
		c-1.1-1-2.7-1.6-4.9-1.6L31.9,88L31.9,88z"/>
	<path class="st4" d="M68,105.5h-8V65.9h8V105.5z"/>
	<path class="st4" d="M102.7,72H91.3v33.5h-7.9V72H72.2v-6.1h30.4L102.7,72L102.7,72z"/>
</g>
<g>
	<path class="st5" d="M26.7,134.9h12.4v2.7H23.3v-25.4h3.4C26.7,112.2,26.7,134.9,26.7,134.9z"/>
	<path class="st5" d="M63.6,127.1c0,3.1-1,5.7-2.9,7.7s-4.4,3.1-7.5,3.1c-3,0-5.4-1-7.2-3.1c-1.9-2-2.8-4.6-2.8-7.7v-4.5
		c0-3.1,0.9-5.7,2.8-7.7c1.9-2.1,4.3-3.1,7.2-3.1c3.1,0,5.6,1,7.5,3.1s2.9,4.6,2.9,7.7V127.1z M60.2,122.5c0-2.3-0.6-4.2-1.9-5.7
		s-2.9-2.2-5.1-2.2c-2,0-3.6,0.7-4.8,2.2s-1.8,3.4-1.8,5.7v4.6c0,2.4,0.6,4.3,1.8,5.8s2.8,2.2,4.8,2.2c2.1,0,3.8-0.7,5.1-2.2
		s1.9-3.4,1.9-5.8V122.5z"/>
	<path class="st5" d="M88.2,114.8h-8.4v22.7h-3.4v-22.7h-8.3v-2.7h20.1V114.8z"/>
	<path class="st5" d="M112.3,114.8h-8.4v22.7h-3.4v-22.7h-8.3v-2.7h20.1C112.3,112.1,112.3,114.8,112.3,114.8z"/>
	<path class="st5" d="M137,112.1V129c0,2.8-0.9,5-2.7,6.5c-1.8,1.6-4.2,2.4-7,2.4s-5-0.8-6.8-2.4s-2.6-3.8-2.6-6.5v-16.9h3.4V129
		c0,1.9,0.6,3.5,1.7,4.6s2.5,1.7,4.3,1.7c1.9,0,3.4-0.5,4.5-1.7c1.2-1.1,1.8-2.6,1.8-4.6v-16.9L137,112.1L137,112.1z"/>
	<path class="st5" d="M158.4,131.1c0-1.2-0.4-2.1-1.2-2.9c-0.8-0.8-2.3-1.4-4.4-2c-2.6-0.6-4.6-1.6-6.1-2.8
		c-1.4-1.2-2.2-2.8-2.2-4.7c0-2,0.8-3.6,2.3-5c1.6-1.3,3.6-2,6.1-2c2.7,0,4.8,0.8,6.4,2.3c1.6,1.5,2.4,3.3,2.3,5.3l-0.1,0.1h-3.3
		c0-1.4-0.5-2.6-1.5-3.6c-1-0.9-2.3-1.4-3.9-1.4c-1.6,0-2.8,0.4-3.7,1.2c-0.9,0.8-1.3,1.8-1.3,3c0,1.1,0.5,2,1.4,2.8
		c0.9,0.7,2.5,1.4,4.6,1.9c2.6,0.7,4.5,1.6,5.9,2.9c1.3,1.3,2,2.9,2,4.8c0,2-0.8,3.7-2.4,4.9c-1.6,1.2-3.7,1.9-6.3,1.9
		c-2.5,0-4.6-0.7-6.5-2.1c-1.9-1.4-2.8-3.2-2.7-5.5v-0.1h3.3c0,1.6,0.6,2.8,1.8,3.7s2.6,1.3,4.1,1.3c1.6,0,2.9-0.4,3.9-1.1
		C157.9,133.4,158.4,132.4,158.4,131.1z"/>
</g>
</svg>
