<?xml version="1.0" encoding="utf-8"?>
<!-- Generator: Adobe Illustrator 19.2.1, SVG Export Plug-In . SVG Version: 6.00 Build 0)  -->
<svg version="1.1" id="Layer_1" xmlns="http://www.w3.org/2000/svg" xmlns:xlink="http://www.w3.org/1999/xlink" x="0px" y="0px"
	 viewBox="0 0 300 62" style="enable-background:new 0 0 300 62;" xml:space="preserve">
<style type="text/css">
	.st0{display:none;}
	.st1{fill:#00AA24;}
</style>
<g id="bgd">
</g>
<g id="hex" class="st0">
</g>
<g id="joiners" class="st0">
</g>
<g id="Layer_4">
	<g>
		<polygon class="st1" points="119.3,38.4 119.3,47.3 127.1,51.8 134.8,47.3 134.8,38.4 127.1,33.9 		"/>
		<polygon class="st1" points="83.8,37.8 83.8,46.8 91.5,51.3 99.3,46.8 99.3,37.8 91.5,33.3 		"/>
		<polygon class="st1" points="189.1,38.1 189.1,47 196.8,51.5 204.6,47 204.6,38.1 196.8,33.6 		"/>
		<polygon class="st1" points="154.7,37.6 154.7,46.6 162.5,51.1 170.2,46.6 170.2,37.6 162.5,33.1 		"/>
		<polygon class="st1" points="171.7,7.3 171.7,16.3 179.4,20.8 187.2,16.3 187.2,7.3 179.4,2.8 		"/>
		<polygon class="st1" points="128.2,22.9 128.2,31.9 135.9,36.4 143.7,31.9 143.7,22.9 135.9,18.4 		"/>
		<polygon class="st1" points="152.4,16.3 152.4,7.4 144.7,2.9 136.9,7.4 136.9,16.3 144.7,20.8 		"/>
		<polygon class="st1" points="117,16.5 117,7.6 109.2,3.1 101.5,7.6 101.5,16.5 109.2,21 		"/>
		<polygon class="st1" points="31.3,7.5 31.3,16.5 39.1,20.9 46.9,16.5 46.9,7.5 39.1,3 		"/>
		<polygon class="st1" points="275.3,16.3 275.3,7.3 267.6,2.8 259.8,7.3 259.8,16.3 267.6,20.8 		"/>
		<polygon class="st1" points="81.9,16.5 81.9,7.5 74.1,3 66.4,7.5 66.4,16.5 74.1,20.9 		"/>
		<polygon class="st1" points="22.6,22.6 22.6,31.6 30.4,36.1 38.1,31.6 38.1,22.6 30.4,18.2 		"/>
		<polygon class="st1" points="48.8,38.4 48.8,47.3 56.6,51.8 64.3,47.3 64.3,38.4 56.6,33.9 		"/>
		<polygon class="st1" points="285.7,23 285.7,31.9 293.4,36.4 301.2,31.9 301.2,23 293.4,18.5 		"/>
		<polygon class="st1" points="215.9,22.4 215.9,31.4 223.6,35.9 231.4,31.4 231.4,22.4 223.6,18 		"/>
		<polygon class="st1" points="276,39.7 276,48.7 283.8,53.2 291.5,48.7 291.5,39.7 283.8,35.2 		"/>
		<polygon class="st1" points="250.9,22.4 250.9,31.3 258.7,35.8 266.5,31.3 266.5,22.4 258.7,17.9 		"/>
		<polygon class="st1" points="207.1,7.3 207.1,16.3 214.9,20.8 222.7,16.3 222.7,7.3 214.9,2.8 		"/>
		<path class="st1" d="M-0.2-1.8v68.4h303.5V-1.8H-0.2z M259.5,7.1l8.1-4.7l8.1,4.7v9.3l-8.1,4.7l-8.1-4.7V7.1z M136.6,7.2l8.1-4.7
			l8.1,4.7v9.3l-8.1,4.7l-8.1-4.7V7.2z M118,7.6c0-0.5,0.4-0.9,0.9-0.9s0.9,0.4,0.9,0.9c0,0.4-0.3,0.8-0.7,0.9v8.3
			c0.4,0.1,0.7,0.4,0.7,0.9c0,0.1,0,0.2-0.1,0.4l5.6,3.1c0.2-0.4,0.6-0.7,1.1-0.7c0.5,0,0.9,0.3,1.1,0.8l6-3.3c0-0.1,0-0.2,0-0.3
			c0-0.5,0.4-0.9,0.9-0.9s0.9,0.4,0.9,0.9s-0.4,0.9-0.9,0.9c-0.3,0-0.5-0.1-0.7-0.3l-6.1,3.3c0,0,0,0,0,0c0,0.6-0.5,1.1-1,1.1v7.6
			c0.4,0.1,0.7,0.4,0.7,0.9c0,0.5-0.4,0.9-0.9,0.9c-0.3,0-0.5-0.1-0.7-0.3l-7.2,4.1c0.1,0.4,0,0.8-0.4,1c-0.4,0.2-1,0.1-1.2-0.3
			c-0.2-0.4-0.1-1,0.3-1.2c0.4-0.2,0.8-0.1,1.1,0.2l7.2-4.1c0-0.1-0.1-0.2-0.1-0.3c0-0.4,0.3-0.8,0.7-0.9v-7.6
			c-0.5-0.1-0.9-0.6-0.9-1.1c0,0,0-0.1,0-0.1l-5.7-3.2c-0.2,0.2-0.4,0.3-0.6,0.3c-0.3,0-0.5-0.1-0.7-0.3l-5.9,3.4c0,0,0,0.1,0,0.1
			c0,0.5-0.4,0.9-0.9,0.9s-0.9-0.4-0.9-0.9s0.4-0.9,0.9-0.9c0.3,0,0.6,0.2,0.8,0.5l5.8-3.4c0-0.1-0.1-0.2-0.1-0.3
			c0-0.4,0.3-0.8,0.7-0.9V8.5C118.3,8.4,118,8.1,118,7.6z M101.2,7.4l8.1-4.7l8.1,4.7v9.3l-8.1,4.7l-8.1-4.7V7.4z M66,7.3l8.1-4.7
			l8.1,4.7v9.3l-8.1,4.7L66,16.7V7.3L66,7.3z M27.8,38c-0.5,0-0.9-0.4-0.9-0.9c0-0.1,0-0.3,0.1-0.4l-5.8-3.4
			c-0.2,0.2-0.4,0.3-0.7,0.3c-0.3,0-0.5-0.1-0.7-0.3l-6.2,3.4c0,0.1,0.1,0.2,0.1,0.3c0,0.6-0.4,1-1,1.1v7.3c0.4,0.1,0.7,0.4,0.7,0.9
			c0,0.1,0,0.2-0.1,0.3l5.8,3.3c0.1-0.1,0.2-0.2,0.3-0.3c0.4-0.2,1-0.1,1.2,0.3c0.2,0.4,0.1,1-0.3,1.2s-1,0.1-1.2-0.3
			c-0.1-0.2-0.1-0.4-0.1-0.6l-5.8-3.3c-0.2,0.2-0.4,0.3-0.7,0.3c-0.3,0-0.5-0.1-0.7-0.3l-7.2,4.1c0.1,0.4,0,0.8-0.4,1
			c-0.4,0.2-1,0.1-1.2-0.3c-0.2-0.4-0.1-1,0.3-1.2c0.4-0.2,0.8-0.1,1.1,0.2l7.2-4.1c0-0.1-0.1-0.2-0.1-0.3c0-0.4,0.3-0.8,0.7-0.9
			v-7.3c-0.6-0.1-1-0.6-1-1.1c0-0.2,0-0.3,0.1-0.4l-5.7-3.2c-0.2,0.2-0.4,0.3-0.6,0.3c-0.5,0-0.9-0.4-0.9-0.9c0-0.4,0.3-0.8,0.7-0.9
			v-8.3c-0.4-0.1-0.7-0.4-0.7-0.9c0-0.5,0.4-0.9,0.9-0.9s0.9,0.4,0.9,0.9c0,0.4-0.3,0.8-0.7,0.9V32c0.4,0.1,0.7,0.4,0.7,0.9
			c0,0.1,0,0.2-0.1,0.4l5.7,3.2c0.2-0.3,0.5-0.4,0.9-0.4c0.4,0,0.8,0.2,1,0.5l6.2-3.4c0-0.1,0-0.2,0-0.3c0-0.4,0.3-0.8,0.7-0.9v-8.3
			c-0.4-0.1-0.7-0.4-0.7-0.9c0-0.5,0.4-0.9,0.9-0.9c0.5,0,0.9,0.4,0.9,0.9c0,0.4-0.3,0.8-0.7,0.9V32c0.4,0.1,0.7,0.4,0.7,0.9
			c0,0.1,0,0.2-0.1,0.3l5.8,3.4c0.2-0.1,0.4-0.2,0.6-0.2c0.5,0,0.9,0.4,0.9,0.9S28.3,38,27.8,38z M38.4,31.8l-8.1,4.7l-8.1-4.7v-9.3
			l8.1-4.7l8.1,4.7V31.8z M31,16.7V7.3l8.1-4.7l8.1,4.7v9.3l-8.1,4.7L31,16.7z M64.6,47.5l-8.1,4.7l-0.1,0l-8-4.6v-9.3l8.1-4.7
			l8.1,4.7L64.6,47.5L64.6,47.5z M57.7,21.8c0,0.6-0.5,1.1-1,1.1v7.6c0.4,0.1,0.7,0.4,0.7,0.9c0,0.1,0,0.2-0.1,0.3l5.8,3.3
			c0.1-0.1,0.2-0.2,0.3-0.3c0.4-0.2,1-0.1,1.2,0.3c0.2,0.4,0.1,1-0.3,1.2s-1,0.1-1.2-0.3C63,35.8,63,35.5,63,35.3L57.2,32
			c-0.2,0.2-0.4,0.3-0.7,0.3c-0.3,0-0.5-0.1-0.7-0.3l-7.2,4.1c0.1,0.4,0,0.8-0.4,1c-0.4,0.2-1,0.1-1.2-0.3s-0.1-1,0.3-1.2
			c0.4-0.2,0.8-0.1,1.1,0.2l7.2-4.1c0-0.1-0.1-0.2-0.1-0.3c0-0.4,0.3-0.8,0.7-0.9v-7.6c-0.5-0.1-0.9-0.6-0.9-1.1c0,0,0-0.1,0-0.1
			l-5.7-3.2c-0.2,0.2-0.4,0.3-0.6,0.3c-0.3,0-0.5-0.1-0.7-0.3l-5.9,3.4c0,0,0,0.1,0,0.1c0,0.5-0.4,0.9-0.9,0.9
			c-0.5,0-0.9-0.4-0.9-0.9s0.4-0.9,0.9-0.9c0.3,0,0.6,0.2,0.8,0.5l5.8-3.4c0-0.1-0.1-0.2-0.1-0.3c0-0.4,0.3-0.8,0.7-0.9V8.8
			c-0.4-0.1-0.7-0.4-0.7-0.9c0-0.5,0.4-0.9,0.9-0.9C49.7,7,50,7.4,50,7.9c0,0.4-0.3,0.8-0.7,0.9v8.3c0.4,0.1,0.7,0.4,0.7,0.9
			c0,0.1,0,0.2-0.1,0.4l5.6,3.1c0.2-0.4,0.6-0.7,1.1-0.7c0.5,0,0.9,0.3,1.1,0.8l6-3.3c0-0.1,0-0.2,0-0.3c0-0.4,0.3-0.8,0.7-0.9V8.8
			c-0.4-0.1-0.7-0.4-0.7-0.9C63.7,7.4,64,7,64.5,7s0.9,0.4,0.9,0.9c0,0.4-0.3,0.8-0.7,0.9v8.3c0.4,0.1,0.7,0.4,0.7,0.9
			c0,0.1,0,0.2-0.1,0.3l5.8,3.4c0.2-0.1,0.4-0.2,0.6-0.2c0.5,0,0.9,0.4,0.9,0.9s-0.4,0.9-0.9,0.9s-0.9-0.4-0.9-0.9
			c0-0.1,0-0.3,0.1-0.4l-5.8-3.3c-0.2,0.2-0.4,0.3-0.7,0.3c-0.3,0-0.5-0.1-0.7-0.3L57.7,21.8C57.7,21.8,57.7,21.8,57.7,21.8z
			 M88.9,53.3c-0.5,0-0.9-0.4-0.9-0.9c0-0.1,0-0.3,0.1-0.4l-5.8-3.4C82.2,48.9,82,49,81.7,49c-0.3,0-0.5-0.1-0.7-0.3l-6.2,3.4
			c0,0.1,0.1,0.2,0.1,0.3c0,0.6-0.4,1-1,1.1v7.3c0.4,0.1,0.7,0.4,0.7,0.9c0,0.5-0.4,0.9-0.9,0.9s-0.9-0.4-0.9-0.9
			c0-0.4,0.3-0.8,0.7-0.9v-7.3c-0.6-0.1-1-0.6-1-1.1c0-0.2,0-0.3,0.1-0.4L67,48.8c-0.2,0.2-0.4,0.3-0.6,0.3c-0.5,0-0.9-0.4-0.9-0.9
			c0-0.4,0.3-0.8,0.7-0.9V39c-0.4-0.1-0.7-0.4-0.7-0.9c0-0.5,0.4-0.9,0.9-0.9s0.9,0.4,0.9,0.9c0,0.4-0.3,0.8-0.7,0.9v8.3
			c0.4,0.1,0.7,0.4,0.7,0.9c0,0.1,0,0.2-0.1,0.4l5.7,3.2c0.2-0.3,0.5-0.4,0.9-0.4c0.4,0,0.8,0.2,1,0.5l6.2-3.4c0-0.1,0-0.2,0-0.3
			c0-0.4,0.3-0.8,0.7-0.9V39c-0.4-0.1-0.7-0.4-0.7-0.9c0-0.5,0.4-0.9,0.9-0.9s0.9,0.4,0.9,0.9c0,0.4-0.3,0.8-0.7,0.9v8.3
			c0.4,0.1,0.7,0.4,0.7,0.9c0,0.1,0,0.2-0.1,0.3l5.8,3.4c0.2-0.1,0.4-0.2,0.6-0.2c0.5,0,0.9,0.4,0.9,0.9S89.4,53.3,88.9,53.3z
			 M99.6,47l-8.1,4.7L83.5,47v-9.3l8.1-4.7l8.1,4.7L99.6,47L99.6,47z M92.8,21.4c0,0.6-0.5,1.1-1,1.1v7.6c0.4,0.1,0.7,0.4,0.7,0.9
			c0,0.1,0,0.2-0.1,0.3l5.8,3.3c0.1-0.1,0.2-0.2,0.3-0.3c0.4-0.2,1-0.1,1.2,0.3c0.2,0.4,0.1,1-0.3,1.2s-1,0.1-1.2-0.3
			C98,35.4,98,35.1,98,34.9l-5.8-3.3c-0.2,0.2-0.4,0.3-0.7,0.3c-0.3,0-0.5-0.1-0.7-0.3l-7.2,4.1c0.1,0.4,0,0.8-0.4,1
			c-0.4,0.2-1,0.1-1.2-0.3c-0.2-0.4-0.1-1,0.3-1.2c0.4-0.2,0.8-0.1,1.1,0.2l7.2-4.1c0-0.1-0.1-0.2-0.1-0.3c0-0.4,0.3-0.8,0.7-0.9
			v-7.6c-0.5-0.1-0.9-0.6-0.9-1.1c0,0,0-0.1,0-0.1l-5.7-3.2c-0.2,0.2-0.4,0.3-0.6,0.3c-0.3,0-0.5-0.1-0.7-0.3l-5.9,3.4
			c0,0,0,0.1,0,0.1c0,0.5-0.4,0.9-0.9,0.9s-0.9-0.4-0.9-0.9s0.4-0.9,0.9-0.9c0.3,0,0.6,0.2,0.8,0.5l5.8-3.4c0-0.1-0.1-0.2-0.1-0.3
			c0-0.4,0.3-0.8,0.7-0.9V8.4c-0.4-0.1-0.7-0.4-0.7-0.9c0-0.5,0.4-0.9,0.9-0.9c0.5,0,0.9,0.4,0.9,0.9c0,0.4-0.3,0.8-0.7,0.9v8.3
			c0.4,0.1,0.7,0.4,0.7,0.9c0,0.1,0,0.2-0.1,0.4l5.6,3.1c0.2-0.4,0.6-0.7,1.1-0.7c0.5,0,0.9,0.3,1.1,0.8l6-3.3c0-0.1,0-0.2,0-0.3
			c0-0.4,0.3-0.8,0.7-0.9V8.4c-0.4-0.1-0.7-0.4-0.7-0.9c0-0.5,0.4-0.9,0.9-0.9c0.5,0,0.9,0.4,0.9,0.9c0,0.4-0.3,0.8-0.7,0.9v8.3
			c0.4,0.1,0.7,0.4,0.7,0.9c0,0.1,0,0.2-0.1,0.3l5.8,3.4c0.2-0.1,0.4-0.2,0.6-0.2c0.5,0,0.9,0.4,0.9,0.9s-0.4,0.9-0.9,0.9
			s-0.9-0.4-0.9-0.9c0-0.1,0-0.3,0.1-0.4l-5.8-3.4c-0.2,0.2-0.4,0.3-0.7,0.3c-0.3,0-0.5-0.1-0.7-0.3L92.8,21.4
			C92.8,21.4,92.8,21.4,92.8,21.4z M124.3,53.8c-0.5,0-0.9-0.4-0.9-0.9c0-0.1,0-0.3,0.1-0.4l-5.8-3.4c-0.2,0.2-0.4,0.3-0.7,0.3
			c-0.3,0-0.5-0.1-0.7-0.3l-6.2,3.4c0,0.1,0.1,0.2,0.1,0.3c0,0.6-0.4,1-1,1.1v7.3c0.4,0.1,0.7,0.4,0.7,0.9c0,0.5-0.4,0.9-0.9,0.9
			s-0.9-0.4-0.9-0.9c0-0.4,0.3-0.8,0.7-0.9v-7.3c-0.6-0.1-1-0.6-1-1.1c0-0.2,0-0.3,0.1-0.4l-5.7-3.2c-0.2,0.2-0.4,0.3-0.6,0.3
			c-0.5,0-0.9-0.4-0.9-0.9c0-0.4,0.3-0.8,0.7-0.9v-8.3c-0.4-0.1-0.7-0.4-0.7-0.9c0-0.5,0.4-0.9,0.9-0.9s0.9,0.4,0.9,0.9
			c0,0.4-0.3,0.8-0.7,0.9v8.3c0.4,0.1,0.7,0.4,0.7,0.9c0,0.1,0,0.2-0.1,0.4l5.7,3.2c0.2-0.3,0.5-0.4,0.9-0.4c0.4,0,0.8,0.2,1,0.5
			l6.2-3.4c0-0.1,0-0.2,0-0.3c0-0.4,0.3-0.8,0.7-0.9v-8.3c-0.4-0.1-0.7-0.4-0.7-0.9c0-0.5,0.4-0.9,0.9-0.9s0.9,0.4,0.9,0.9
			c0,0.4-0.3,0.8-0.7,0.9v8.3c0.4,0.1,0.7,0.4,0.7,0.9c0,0.1,0,0.2-0.1,0.3l5.8,3.4c0.2-0.1,0.4-0.2,0.6-0.2c0.5,0,0.9,0.4,0.9,0.9
			C125.1,53.4,124.7,53.8,124.3,53.8z M135.2,47.5l-8.1,4.7l-0.1,0l-8-4.6v-9.3l8.1-4.7l8.1,4.7V47.5L135.2,47.5z M127.9,32.1v-9.3
			l8.1-4.7l8.1,4.7v9.3l-8.1,4.7L127.9,32.1z M159.8,53.5c-0.5,0-0.9-0.4-0.9-0.9c0-0.1,0-0.3,0.1-0.4l-5.8-3.4
			c-0.2,0.2-0.4,0.3-0.7,0.3c-0.3,0-0.5-0.1-0.7-0.3l-6.2,3.4c0,0.1,0.1,0.2,0.1,0.3c0,0.6-0.4,1-1,1.1V61c0.4,0.1,0.7,0.4,0.7,0.9
			c0,0.5-0.4,0.9-0.9,0.9s-0.9-0.4-0.9-0.9c0-0.4,0.3-0.8,0.7-0.9v-7.3c-0.6-0.1-1-0.6-1-1.1c0-0.2,0-0.3,0.1-0.4l-5.7-3.2
			c-0.2,0.2-0.4,0.3-0.6,0.3c-0.5,0-0.9-0.4-0.9-0.9c0-0.4,0.3-0.8,0.7-0.9v-8.3c-0.4-0.1-0.7-0.4-0.7-0.9c0-0.5,0.4-0.9,0.9-0.9
			c0.5,0,0.9,0.4,0.9,0.9c0,0.4-0.3,0.8-0.7,0.9v8.3c0.4,0.1,0.7,0.4,0.7,0.9c0,0.1,0,0.2-0.1,0.4l5.7,3.2c0.2-0.3,0.5-0.4,0.9-0.4
			c0.4,0,0.8,0.2,1,0.5l6.2-3.4c0-0.1,0-0.2,0-0.3c0-0.4,0.3-0.8,0.7-0.9v-8.3c-0.4-0.1-0.7-0.4-0.7-0.9c0-0.5,0.4-0.9,0.9-0.9
			c0.5,0,0.9,0.4,0.9,0.9c0,0.4-0.3,0.8-0.7,0.9v8.3c0.4,0.1,0.7,0.4,0.7,0.9c0,0.1,0,0.2-0.1,0.3l5.8,3.4c0.2-0.1,0.4-0.2,0.6-0.2
			c0.5,0,0.9,0.4,0.9,0.9C160.7,53.1,160.3,53.5,159.8,53.5z M170.5,46.8l-8.1,4.7l-8.1-4.7v-9.3l8.1-4.7l8.1,4.7V46.8z M177.2,22.5
			c-0.5,0-0.9-0.4-0.9-0.9c0,0,0-0.1,0-0.1l-5.9-3.4c-0.2,0.2-0.4,0.3-0.7,0.3c-0.2,0-0.5-0.1-0.6-0.3l-5.7,3.2c0,0,0,0.1,0,0.1
			c0,0.6-0.4,1-0.9,1.1v7.6c0.4,0.1,0.7,0.4,0.7,0.9c0,0.1,0,0.2-0.1,0.3l7.2,4.1c0.3-0.3,0.7-0.4,1.1-0.2c0.4,0.2,0.6,0.8,0.3,1.2
			s-0.8,0.6-1.2,0.3c-0.4-0.2-0.5-0.7-0.4-1l-7.2-4.1c-0.2,0.2-0.4,0.3-0.7,0.3c-0.3,0-0.5-0.1-0.7-0.3L156,35
			c0.1,0.2,0,0.4-0.1,0.6c-0.2,0.4-0.8,0.6-1.2,0.3s-0.6-0.8-0.3-1.2s0.8-0.6,1.2-0.3c0.1,0.1,0.2,0.2,0.3,0.3l5.8-3.3
			c0-0.1-0.1-0.2-0.1-0.3c0-0.4,0.3-0.8,0.7-0.9v-7.6c-0.6-0.1-1-0.5-1-1.1c0,0,0,0,0,0l-6.1-3.3c-0.2,0.2-0.4,0.3-0.7,0.3
			c-0.3,0-0.5-0.1-0.7-0.3l-5.8,3.4c0.1,0.1,0.1,0.2,0.1,0.4c0,0.5-0.4,0.9-0.9,0.9s-0.9-0.4-0.9-0.9s0.4-0.9,0.9-0.9
			c0.2,0,0.4,0.1,0.6,0.2l5.8-3.4c0-0.1-0.1-0.2-0.1-0.3c0-0.4,0.3-0.8,0.7-0.9V8.4c-0.4-0.1-0.7-0.4-0.7-0.9c0-0.5,0.4-0.9,0.9-0.9
			s0.9,0.4,0.9,0.9c0,0.4-0.3,0.8-0.7,0.9v8.3c0.4,0.1,0.7,0.4,0.7,0.9c0,0.1,0,0.2,0,0.3l6,3.3c0.1-0.5,0.6-0.8,1.1-0.8
			c0.5,0,0.9,0.3,1.1,0.7l5.6-3.1c0-0.1-0.1-0.2-0.1-0.4c0-0.4,0.3-0.8,0.7-0.9V8.4c-0.4-0.1-0.7-0.4-0.7-0.9c0-0.5,0.4-0.9,0.9-0.9
			s0.9,0.4,0.9,0.9c0,0.4-0.3,0.8-0.7,0.9v8.3c0.4,0.1,0.7,0.4,0.7,0.9c0,0.1,0,0.2-0.1,0.3l5.8,3.4c0.1-0.3,0.4-0.5,0.8-0.5
			c0.5,0,0.9,0.4,0.9,0.9S177.7,22.5,177.2,22.5z M171.4,16.5V7.1l8.1-4.7l8.1,4.7v9.3l-8.1,4.7L171.4,16.5z M204.9,47.2l-8.1,4.7
			l-8.1-4.7v-9.3l8.1-4.7l8.1,4.7V47.2z M212,22.8c-0.5,0-0.9-0.4-0.9-0.9c0-0.1,0-0.3,0.1-0.4l-5.8-3.4c-0.2,0.2-0.4,0.3-0.7,0.3
			c-0.3,0-0.5-0.1-0.7-0.3l-6.1,3.3c0,0,0,0,0,0c0,0.6-0.5,1.1-1,1.1v7.6c0.4,0.1,0.7,0.4,0.7,0.9c0,0.1,0,0.2-0.1,0.3l5.8,3.3
			c0.1-0.1,0.2-0.2,0.3-0.3c0.4-0.2,1-0.1,1.2,0.3c0.2,0.4,0.1,1-0.3,1.2c-0.4,0.2-1,0.1-1.2-0.3c-0.1-0.2-0.1-0.4-0.1-0.6l-5.8-3.3
			c-0.2,0.2-0.4,0.3-0.7,0.3c-0.3,0-0.5-0.1-0.7-0.3l-7.2,4.1c0.1,0.4,0,0.8-0.4,1c-0.4,0.2-1,0.1-1.2-0.3c-0.2-0.4-0.1-1,0.3-1.2
			c0.4-0.2,0.8-0.1,1.1,0.2l7.2-4.1c0-0.1-0.1-0.2-0.1-0.3c0-0.4,0.3-0.8,0.7-0.9v-7.6c-0.5-0.1-0.9-0.6-0.9-1.1c0,0,0-0.1,0-0.1
			l-5.7-3.2c-0.2,0.2-0.4,0.3-0.6,0.3c-0.3,0-0.5-0.1-0.7-0.3l-5.9,3.4c0,0,0,0.1,0,0.1c0,0.5-0.4,0.9-0.9,0.9s-0.9-0.4-0.9-0.9
			s0.4-0.9,0.9-0.9c0.3,0,0.6,0.2,0.8,0.5l5.8-3.4c0-0.1-0.1-0.2-0.1-0.3c0-0.4,0.3-0.8,0.7-0.9V8.5c-0.4-0.1-0.7-0.4-0.7-0.9
			c0-0.5,0.4-0.9,0.9-0.9s0.9,0.4,0.9,0.9c0,0.4-0.3,0.8-0.7,0.9v8.3c0.4,0.1,0.7,0.4,0.7,0.9c0,0.1,0,0.2-0.1,0.4l5.6,3.1
			c0.2-0.4,0.6-0.7,1.1-0.7c0.5,0,0.9,0.3,1.1,0.8l6-3.3c0-0.1,0-0.2,0-0.3c0-0.4,0.3-0.8,0.7-0.9V8.5c-0.4-0.1-0.7-0.4-0.7-0.9
			c0-0.5,0.4-0.9,0.9-0.9s0.9,0.4,0.9,0.9c0,0.4-0.3,0.8-0.7,0.9v8.3c0.4,0.1,0.7,0.4,0.7,0.9c0,0.1,0,0.2-0.1,0.3l5.8,3.4
			c0.2-0.1,0.4-0.2,0.6-0.2c0.5,0,0.9,0.4,0.9,0.9S212.5,22.8,212,22.8z M206.8,16.5V7.1l8.1-4.7l8.1,4.7v9.3l-8.1,4.7L206.8,16.5z
			 M215.6,31.6v-9.3l8.1-4.7l8.1,4.7v9.3l-8.1,4.7L215.6,31.6z M256.1,37.8c-0.5,0-0.9-0.4-0.9-0.9c0,0,0-0.1,0-0.1l-5.9-3.4
			c-0.2,0.2-0.4,0.3-0.7,0.3c-0.2,0-0.5-0.1-0.6-0.3l-5.7,3.2c0.1,0.1,0.1,0.3,0.1,0.4c0,0.6-0.4,1-1,1.1v7.3
			c0.4,0.1,0.7,0.4,0.7,0.9c0,0.1,0,0.2-0.1,0.3l7.2,4.1c0.3-0.3,0.7-0.4,1.1-0.2c0.4,0.2,0.6,0.8,0.3,1.2s-0.8,0.6-1.2,0.3
			c-0.4-0.2-0.5-0.7-0.4-1L242,47c-0.2,0.2-0.4,0.3-0.7,0.3c-0.3,0-0.5-0.1-0.7-0.3l-5.8,3.3c0.1,0.2,0,0.4-0.1,0.6
			c-0.2,0.4-0.8,0.6-1.2,0.3s-0.6-0.8-0.3-1.2s0.8-0.6,1.2-0.3c0.1,0.1,0.2,0.2,0.3,0.3l5.8-3.3c0-0.1-0.1-0.2-0.1-0.3
			c0-0.4,0.3-0.8,0.7-0.9v-7.3c-0.6-0.1-1-0.6-1-1.1c0-0.1,0-0.2,0.1-0.3l-6.2-3.4c-0.2,0.2-0.4,0.3-0.7,0.3c-0.3,0-0.5-0.1-0.7-0.3
			l-5.8,3.4c0.1,0.1,0.1,0.2,0.1,0.4c0,0.5-0.4,0.9-0.9,0.9s-0.9-0.4-0.9-0.9s0.4-0.9,0.9-0.9c0.2,0,0.4,0.1,0.6,0.2l5.8-3.4
			c0-0.1-0.1-0.2-0.1-0.3c0-0.4,0.3-0.8,0.7-0.9v-8.3c-0.4-0.1-0.7-0.4-0.7-0.9c0-0.5,0.4-0.9,0.9-0.9s0.9,0.4,0.9,0.9
			c0,0.4-0.3,0.8-0.7,0.9v8.3c0.4,0.1,0.7,0.4,0.7,0.9c0,0.1,0,0.2,0,0.3l6.2,3.4c0.2-0.3,0.6-0.5,1-0.5c0.4,0,0.7,0.2,0.9,0.4
			l5.7-3.2c0-0.1-0.1-0.2-0.1-0.4c0-0.4,0.3-0.8,0.7-0.9v-8.3c-0.4-0.1-0.7-0.4-0.7-0.9c0-0.5,0.4-0.9,0.9-0.9s0.9,0.4,0.9,0.9
			c0,0.4-0.3,0.8-0.7,0.9v8.3c0.4,0.1,0.7,0.4,0.7,0.9c0,0.1,0,0.2-0.1,0.3l5.8,3.4c0.1-0.3,0.4-0.5,0.8-0.5c0.5,0,0.9,0.4,0.9,0.9
			C257,37.5,256.6,37.8,256.1,37.8z M250.6,31.5v-9.3l8.1-4.7l8.1,4.7v9.3l-8.1,4.7L250.6,31.5z M291.9,48.9l-8.1,4.7l-8.1-4.7v-9.3
			l8.1-4.7l8.1,4.7V48.9z M291,38.3c-0.5,0-0.9-0.4-0.9-0.9c0-0.1,0-0.3,0.1-0.4l-5.8-3.4c-0.2,0.2-0.4,0.3-0.7,0.3
			c-0.3,0-0.5-0.1-0.7-0.3l-6.1,3.3c0,0,0,0,0,0c0,0.6-0.5,1.1-1.1,1.1s-1.1-0.5-1.1-1.1c0,0,0-0.1,0-0.1l-5.7-3.2
			c-0.2,0.2-0.4,0.3-0.6,0.3c-0.3,0-0.5-0.1-0.7-0.3l-5.9,3.4c0,0,0,0.1,0,0.1c0,0.5-0.4,0.9-0.9,0.9s-0.9-0.4-0.9-0.9
			s0.4-0.9,0.9-0.9c0.3,0,0.6,0.2,0.8,0.5l5.8-3.4c0-0.1-0.1-0.2-0.1-0.3c0-0.4,0.3-0.8,0.7-0.9V24c-0.4-0.1-0.7-0.4-0.7-0.9
			c0-0.5,0.4-0.9,0.9-0.9s0.9,0.4,0.9,0.9c0,0.4-0.3,0.8-0.7,0.9v8.3c0.4,0.1,0.7,0.4,0.7,0.9c0,0.1,0,0.2-0.1,0.4l5.6,3.1
			c0.2-0.4,0.6-0.7,1.1-0.7c0.5,0,0.9,0.3,1.1,0.8l6-3.3c0-0.1,0-0.2,0-0.3c0-0.4,0.3-0.8,0.7-0.9V24c-0.4-0.1-0.7-0.4-0.7-0.9
			c0-0.5,0.4-0.9,0.9-0.9s0.9,0.4,0.9,0.9c0,0.4-0.3,0.8-0.7,0.9v8.3c0.4,0.1,0.7,0.4,0.7,0.9c0,0.1,0,0.2-0.1,0.3l5.8,3.4
			c0.2-0.1,0.4-0.2,0.6-0.2c0.5,0,0.9,0.4,0.9,0.9C291.9,37.9,291.5,38.3,291,38.3z M301.5,32.1l-8.1,4.7l-8.1-4.7v-9.3l8.1-4.7
			l8.1,4.7V32.1z"/>
	</g>
</g>
</svg>
